<svg width="60" height="44" viewBox="0 0 60 44" fill="none" xmlns="http://www.w3.org/2000/svg">
<path d="M50.7922 3.64919C46.9673 1.96264 42.8675 0.716053 38.5801 0.00721104C38.5419 4.41972e-05 38.5024 0.00466277 38.467 0.0204281C38.4316 0.0361934 38.4021 0.0623255 38.3826 0.0952053C37.8576 0.997146 37.2726 2.17285 36.8626 3.10167C32.3155 2.43741 27.6927 2.43741 23.1455 3.10167C22.6889 2.07229 22.1739 1.06858 21.6031 0.0952053C21.5837 0.0619208 21.5545 0.0351975 21.5192 0.0186017C21.4839 0.00200594 21.4443 -0.00367331 21.4056 0.00232225C17.1207 0.711165 13.0208 1.95775 9.19344 3.64675C9.16051 3.66025 9.13259 3.68328 9.11344 3.71275C1.33366 14.8953 -0.798775 25.8017 0.248694 36.5713C0.251609 36.5976 0.259983 36.6232 0.273306 36.6463C0.286629 36.6694 0.304623 36.6896 0.326192 36.7057C4.86704 39.9381 9.93176 42.4004 15.3083 43.9897C15.3457 44.0009 15.3858 44.0009 15.4233 43.9896C15.4608 43.9782 15.4938 43.9561 15.5183 43.9261C16.6752 42.4133 17.7004 40.8083 18.5832 39.128C18.5954 39.105 18.6025 39.0797 18.6039 39.0538C18.6053 39.028 18.601 39.0021 18.5912 38.978C18.5815 38.9539 18.5666 38.9321 18.5475 38.9141C18.5285 38.8962 18.5057 38.8824 18.4807 38.8738C16.8657 38.2791 15.301 37.5616 13.8008 36.7277C13.7738 36.7126 13.7511 36.6913 13.7347 36.6655C13.7183 36.6398 13.7086 36.6105 13.7066 36.5802C13.7047 36.5499 13.7104 36.5196 13.7233 36.492C13.7363 36.4644 13.756 36.4404 13.7808 36.4222C14.0958 36.1948 14.4108 35.9577 14.7108 35.7206C14.7378 35.6993 14.7703 35.6857 14.8047 35.6814C14.8392 35.6771 14.8741 35.6822 14.9058 35.6962C24.723 40.0079 35.3552 40.0079 45.0574 35.6962C45.0891 35.6814 45.1245 35.6756 45.1594 35.6795C45.1943 35.6834 45.2274 35.6968 45.2549 35.7182C45.5549 35.9577 45.8674 36.1948 46.1849 36.4222C46.2099 36.4401 46.23 36.4637 46.2433 36.4911C46.2567 36.5184 46.2629 36.5486 46.2614 36.5789C46.2599 36.6091 46.2508 36.6386 46.2348 36.6645C46.2188 36.6905 46.1965 36.7122 46.1699 36.7277C44.6749 37.5685 43.12 38.2798 41.4875 38.8713C41.4624 38.8802 41.4396 38.8942 41.4205 38.9125C41.4014 38.9307 41.3865 38.9527 41.3768 38.977C41.3671 39.0013 41.3628 39.0273 41.3643 39.0533C41.3657 39.0794 41.3727 39.1048 41.385 39.128C42.285 40.8072 43.3149 42.4058 44.4474 43.9237C44.471 43.9548 44.5038 43.9781 44.5413 43.9903C44.5789 44.0026 44.6195 44.0032 44.6574 43.9921C50.0431 42.4073 55.1161 39.9438 59.662 36.7057C59.6842 36.6905 59.7028 36.6709 59.7166 36.6481C59.7304 36.6254 59.739 36.6 59.742 36.5737C60.9919 24.1225 57.647 13.3041 50.8697 3.71763C50.8531 3.68648 50.8256 3.66219 50.7922 3.64919ZM20.0506 30.0132C17.0957 30.0132 14.6583 27.4003 14.6583 24.1958C14.6583 20.9889 17.0482 18.3784 20.0506 18.3784C23.0755 18.3784 25.4905 21.0109 25.443 24.1958C25.443 27.4027 23.053 30.0132 20.0506 30.0132V30.0132ZM39.9875 30.0132C37.0301 30.0132 34.5952 27.4003 34.5952 24.1958C34.5952 20.9889 36.9826 18.3784 39.9875 18.3784C43.0125 18.3784 45.4274 21.0109 45.3799 24.1958C45.3799 27.4027 43.015 30.0132 39.9875 30.0132V30.0132Z" fill="#FAF6F6"/>
</svg>
