<svg width="57" height="57" viewBox="0 0 57 57" fill="none" xmlns="http://www.w3.org/2000/svg">
<path d="M28.5 0C12.7597 0 0 12.7597 0 28.5C0 44.2403 12.7597 57 28.5 57C44.2403 57 57 44.2403 57 28.5C57 12.7597 44.2403 0 28.5 0ZM21.5234 40.3127H15.7522V21.7402H21.5234V40.3127ZM18.6022 19.4602C16.7794 19.4602 15.6008 18.1687 15.6008 16.5716C15.6008 14.9417 16.815 13.6889 18.6764 13.6889C20.5378 13.6889 21.6778 14.9417 21.7134 16.5716C21.7134 18.1687 20.5378 19.4602 18.6022 19.4602ZM42.6016 40.3127H36.8303V30.02C36.8303 27.6242 35.9931 25.9973 33.9061 25.9973C32.3119 25.9973 31.3648 27.0988 30.9463 28.1586C30.7919 28.5356 30.7533 29.07 30.7533 29.6014V40.3097H24.9791V27.6628C24.9791 25.3442 24.9048 23.4056 24.8277 21.7372H29.8419L30.1061 24.317H30.2219C30.9819 23.1058 32.8433 21.3186 35.9575 21.3186C39.7545 21.3186 42.6016 23.8628 42.6016 29.3313V40.3127V40.3127Z" fill="#FAF6F6"/>
</svg>
