<svg width="67" height="67" viewBox="0 0 67 67" fill="none" xmlns="http://www.w3.org/2000/svg">
<path fill-rule="evenodd" clip-rule="evenodd" d="M26.3009 0.247288C5.71518 2.66562 -6.27969 28.2647 3.41124 49.0969C8.43304 59.8919 17.687 66.3771 28.7653 66.8654L31.8259 67V55.8906V44.7812H25.1045H18.3831V47.1887V49.5963H22.7041H27.025V55.7356C27.025 62.8455 27.3559 62.2158 24.0645 61.3729C2.91752 55.9577 -2.08066 22.9676 16.193 9.41496C19.1252 7.24032 25.4623 4.6802 26.7175 5.16339C26.9625 5.25781 27.025 8.13955 27.025 19.3737V33.4655H29.4255H31.8259V16.7329V0L29.8457 0.0317714C28.7563 0.0491566 27.1613 0.146274 26.3009 0.247288ZM35.1867 33.4655V66.9311L37.0471 66.9236C52.8731 66.8603 65.4376 53.9824 66.8736 36.3527C68.4681 16.7815 54.7742 0 37.21 0H35.1867V33.4655ZM44.6116 6.12377C65.7526 13.3029 68.327 47.3215 48.6131 58.9968C46.1373 60.4632 40.9018 62.1726 40.2067 61.7416C40.077 61.661 39.9879 50.095 39.9879 33.3037V5.00153L41.1281 5.16459C41.7551 5.25451 43.3229 5.68615 44.6116 6.12377Z" fill="#FAF6F6"/>
</svg>
