<svg width="60" height="44" viewBox="0 0 60 44" fill="none" xmlns="http://www.w3.org/2000/svg">
<path d="M9.75 1.91818e-08H50.25C52.7404 -0.000149454 55.1365 0.873273 56.9467 2.4411C58.7569 4.00892 59.844 6.15228 59.985 8.4315L60 8.9375V35.0625C60.0002 37.3454 59.0473 39.5418 57.337 41.2011C55.6266 42.8605 53.2884 43.857 50.802 43.9863L50.25 44H9.75C7.25959 44.0001 4.86351 43.1267 3.05331 41.5589C1.2431 39.9911 0.155996 37.8477 0.0150004 35.5685L2.09256e-08 35.0625V8.9375C-0.00016304 6.65462 0.952662 4.45822 2.66302 2.79887C4.37337 1.13951 6.71158 0.142996 9.198 0.0137503L9.75 1.91818e-08H50.25H9.75ZM55.5 14.7758L31.05 26.5733C30.7739 26.7069 30.4705 26.7865 30.1591 26.8069C29.8476 26.8272 29.535 26.7879 29.241 26.6915L28.953 26.576L4.5 14.7785V35.0625C4.50005 36.2703 4.99551 37.4339 5.88804 38.3223C6.78057 39.2108 8.0049 39.7591 9.318 39.8585L9.75 39.875H50.25C51.568 39.8749 52.8378 39.4203 53.8071 38.6016C54.7764 37.7829 55.3743 36.6599 55.482 35.4557L55.5 35.0625V14.7758ZM50.25 4.125H9.75C8.43243 4.12505 7.16305 4.57922 6.19383 5.39737C5.22461 6.21552 4.62642 7.33782 4.518 8.5415L4.5 8.9375V10.1172L30 22.418L55.5 10.1145V8.9375C55.4999 7.72929 55.004 6.56532 54.1109 5.6768C53.2177 4.78828 51.9926 4.24023 50.679 4.1415L50.25 4.125Z" fill="#FAF6F6"/>
</svg>
