<svg width="372" height="24" viewBox="0 0 372 24" fill="none" xmlns="http://www.w3.org/2000/svg">
<path fill-rule="evenodd" clip-rule="evenodd" d="M222.63 10.9618C173.124 11.388 123.593 13.079 74.3019 16.1016C50.8674 17.539 23.6529 17.3593 0.924425 22.2596C-0.208079 22.5062 0.00760286 23.246 0.0321159 23.32C0.0811421 23.4715 0.287105 23.9752 1.18919 23.9999C1.28724 24.0034 1.97846 23.9329 2.2432 23.9083C8.95488 23.2742 15.6421 22.5344 22.3586 21.9355C45.548 19.8606 68.806 18.2929 92.0983 16.919C123.014 15.0941 154.195 14.1218 185.194 13.3608C202.162 12.9452 219.537 13.4982 236.559 12.6386C242.81 12.614 249.06 12.6105 255.311 12.6246C281.442 12.6916 307.544 13.4032 333.63 14.379C342.019 14.6925 348.417 15.0307 356.629 15.2597C359.747 15.3478 364.693 15.4077 368.135 15.4464C368.64 15.4535 369.929 15.4605 370.464 15.464C370.518 15.471 370.572 15.471 370.63 15.471C370.836 15.471 370.934 15.4605 370.954 15.4605C372.121 15.3372 372.013 14.5445 371.984 14.4248C371.979 14.4001 371.802 13.7307 370.797 13.7061C370.557 13.699 368.836 13.6921 368.174 13.685C364.752 13.6463 359.825 13.5864 356.722 13.5018C348.525 13.2728 342.132 12.9346 333.758 12.6211C307.632 11.6453 281.491 10.9301 255.321 10.8632C252.125 10.8562 248.923 10.8526 245.727 10.8561C245.619 10.6553 245.379 10.4299 244.849 10.3312C244.354 10.2396 240.809 10.1586 239.441 10.0776C229.318 9.47872 229.617 9.5069 218.478 9.01722C201.608 8.2739 199.039 8.10472 181.493 7.79119C149.621 7.22048 117.734 7.26634 85.8573 7.3227C70.1199 7.35441 53.2696 8.11886 37.292 6.6921C42.5574 6.24822 47.8424 5.92412 53.1176 5.55422C71.1298 4.29304 89.1568 3.51092 107.242 2.96136C150.626 1.64381 194.078 1.11894 237.446 2.9156C228.214 2.97901 218.988 3.12693 209.756 3.22205C172.178 3.61661 134.236 3.32072 96.7362 5.3675C96.0645 5.40625 95.5596 5.82897 95.6086 6.3116C95.6576 6.79776 96.2508 7.16063 96.9225 7.1254C134.374 5.07862 172.261 5.37804 209.79 4.98348C223.734 4.83904 237.672 4.57837 251.615 4.65587C256.4 4.68406 261.185 4.8109 265.97 4.85318C266.916 4.86374 269.352 4.99761 269.7 4.94125C270.47 4.81795 270.637 4.40927 270.686 4.20846C270.71 4.08869 270.789 3.39821 269.612 3.15161C261.582 1.46768 246.761 1.54518 238.956 1.21403C195.053 -0.653084 151.062 -0.131714 107.14 1.19993C89.0097 1.75302 70.9386 2.53866 52.8774 3.80337C46.5677 4.24373 40.2434 4.62419 33.9582 5.20899C32.9434 5.3041 30.6637 5.44152 29.5606 5.58596C29.0998 5.64585 28.7664 5.73034 28.6193 5.79023C28.0457 6.02273 27.9427 6.36094 27.9427 6.58992C27.9378 6.76606 28.0408 7.38608 29.2419 7.55518C47.5434 10.1304 67.4578 9.11936 85.8622 9.08413C117.719 9.02777 149.581 8.98191 181.434 9.55262C198.936 9.86615 201.495 10.0318 218.331 10.7751C219.993 10.8456 221.4 10.9089 222.63 10.9618Z" fill="#EBFF9D"/>
</svg>
